<svg width="169" height="50" viewBox="0 0 169 50" fill="none" xmlns="http://www.w3.org/2000/svg">
<g clip-path="url(#clip0)">
<path d="M162.746 50H5.91125C2.6525 50 0 47.34 0 44.0837V5.9075C0 2.65 2.6525 0 5.91125 0H162.746C166.004 0 168.75 2.65 168.75 5.9075V44.0837C168.75 47.34 166.004 50 162.746 50Z" fill="#A6A6A6"/>
<path d="M167.54 44.0848C167.54 46.7298 165.398 48.8723 162.748 48.8723H5.9113C3.26255 48.8723 1.11255 46.7298 1.11255 44.0848V5.90605C1.11255 3.2623 3.26255 1.1123 5.9113 1.1123H162.746C165.398 1.1123 167.539 3.2623 167.539 5.90605L167.54 44.0848Z" fill="black"/>
<path d="M37.6599 24.7298C37.6236 20.701 40.9586 18.741 41.1111 18.6498C39.2224 15.896 36.2949 15.5198 35.2661 15.4898C32.8074 15.231 30.4224 16.961 29.1699 16.961C27.8924 16.961 25.9636 15.5148 23.8849 15.5573C21.2099 15.5985 18.7074 17.1473 17.3349 19.5523C14.5024 24.456 16.6149 31.6623 19.3286 35.626C20.6861 37.5673 22.2724 39.7348 24.3486 39.6585C26.3799 39.5748 27.1386 38.3635 29.5899 38.3635C32.0186 38.3635 32.7311 39.6585 34.8486 39.6098C37.0286 39.5748 38.4011 37.6598 39.7111 35.701C41.2799 33.476 41.9099 31.2848 41.9349 31.1723C41.8836 31.1548 37.7011 29.5585 37.6599 24.7298Z" fill="white"/>
<path d="M33.6601 12.8822C34.7526 11.516 35.5001 9.65725 35.2926 7.771C33.7113 7.841 31.7338 8.86475 30.5951 10.201C29.5876 11.3785 28.6875 13.3085 28.92 15.1235C30.6963 15.256 32.5201 14.2272 33.6601 12.8822Z" fill="white"/>
<path d="M67.056 39.3801H64.2172L62.6622 34.4939H57.2572L55.776 39.3801H53.0122L58.3672 22.7451H61.6747L67.056 39.3801ZM62.1935 32.4439L60.7872 28.1001C60.6385 27.6564 60.3597 26.6114 59.9485 24.9664H59.8985C59.7347 25.6739 59.471 26.7189 59.1085 28.1001L57.7272 32.4439H62.1935Z" fill="white"/>
<path d="M80.8271 33.2354C80.8271 35.2754 80.2759 36.8879 79.1734 38.0717C78.1859 39.1254 76.9596 39.6517 75.4959 39.6517C73.9159 39.6517 72.7809 39.0842 72.0896 37.9492H72.0396V44.2679H69.3746V31.3342C69.3746 30.0517 69.3409 28.7354 69.2759 27.3854H71.6196L71.7684 29.2867H71.8184C72.7071 27.8542 74.0559 27.1392 75.8659 27.1392C77.2809 27.1392 78.4621 27.6979 79.4071 28.8167C80.3546 29.9367 80.8271 31.4092 80.8271 33.2354ZM78.1121 33.3329C78.1121 32.1654 77.8496 31.2029 77.3221 30.4454C76.7459 29.6554 75.9721 29.2604 75.0021 29.2604C74.3446 29.2604 73.7471 29.4804 73.2134 29.9142C72.6784 30.3517 72.3284 30.9229 72.1646 31.6304C72.0821 31.9604 72.0409 32.2304 72.0409 32.4429V34.4429C72.0409 35.3154 72.3084 36.0517 72.8434 36.6529C73.3784 37.2542 74.0734 37.5542 74.9284 37.5542C75.9321 37.5542 76.7134 37.1667 77.2721 36.3942C77.8321 35.6204 78.1121 34.6004 78.1121 33.3329Z" fill="white"/>
<path d="M94.6232 33.2354C94.6232 35.2754 94.072 36.8879 92.9682 38.0717C91.982 39.1254 90.7557 39.6517 89.292 39.6517C87.712 39.6517 86.577 39.0842 85.887 37.9492H85.837V44.2679H83.172V31.3342C83.172 30.0517 83.1382 28.7354 83.0732 27.3854H85.417L85.5657 29.2867H85.6157C86.5032 27.8542 87.852 27.1392 89.6632 27.1392C91.077 27.1392 92.2582 27.6979 93.2057 28.8167C94.1495 29.9367 94.6232 31.4092 94.6232 33.2354ZM91.9082 33.3329C91.9082 32.1654 91.6445 31.2029 91.117 30.4454C90.5407 29.6554 89.7695 29.2604 88.7982 29.2604C88.1395 29.2604 87.5432 29.4804 87.0082 29.9142C86.4732 30.3517 86.1245 30.9229 85.9607 31.6304C85.8795 31.9604 85.837 32.2304 85.837 32.4429V34.4429C85.837 35.3154 86.1045 36.0517 86.637 36.6529C87.172 37.2529 87.867 37.5542 88.7245 37.5542C89.7282 37.5542 90.5095 37.1667 91.0682 36.3942C91.6282 35.6204 91.9082 34.6004 91.9082 33.3329Z" fill="white"/>
<path d="M110.048 34.7152C110.048 36.1302 109.557 37.2815 108.571 38.1702C107.487 39.1415 105.978 39.6265 104.04 39.6265C102.25 39.6265 100.815 39.2815 99.7283 38.5902L100.346 36.369C101.516 37.0765 102.8 37.4315 104.198 37.4315C105.202 37.4315 105.983 37.204 106.545 36.7515C107.103 36.299 107.382 35.6915 107.382 34.934C107.382 34.259 107.152 33.6902 106.691 33.229C106.232 32.7677 105.466 32.339 104.396 31.9427C101.483 30.8565 100.028 29.2652 100.028 27.1727C100.028 25.8052 100.538 24.684 101.56 23.8115C102.577 22.9377 103.935 22.5015 105.632 22.5015C107.146 22.5015 108.403 22.7652 109.407 23.2915L108.741 25.464C107.803 24.954 106.743 24.699 105.557 24.699C104.62 24.699 103.887 24.9302 103.362 25.3902C102.918 25.8015 102.696 26.3027 102.696 26.8965C102.696 27.554 102.95 28.0977 103.46 28.5252C103.903 28.9202 104.71 29.3477 105.88 29.809C107.311 30.3852 108.362 31.059 109.038 31.8315C109.712 32.6015 110.048 33.5652 110.048 34.7152Z" fill="white"/>
<path d="M118.86 29.3852H115.922V35.209C115.922 36.6902 116.44 37.4302 117.477 37.4302C117.953 37.4302 118.348 37.389 118.661 37.3065L118.735 39.3302C118.21 39.5265 117.518 39.6252 116.662 39.6252C115.61 39.6252 114.787 39.304 114.193 38.6627C113.602 38.0202 113.305 36.9427 113.305 35.429V29.3827H111.555V27.3827H113.305V25.1865L115.922 24.3965V27.3827H118.86V29.3852Z" fill="white"/>
<path d="M132.114 33.2839C132.114 35.1276 131.586 36.6414 130.534 37.8251C129.43 39.0439 127.965 39.6514 126.139 39.6514C124.379 39.6514 122.977 39.0676 121.932 37.9001C120.887 36.7326 120.365 35.2589 120.365 33.4826C120.365 31.6239 120.902 30.1014 121.981 28.9176C123.057 27.7326 124.51 27.1401 126.336 27.1401C128.096 27.1401 129.513 27.7239 130.581 28.8926C131.604 30.0264 132.114 31.4901 132.114 33.2839ZM129.349 33.3701C129.349 32.2639 129.113 31.3151 128.634 30.5239C128.075 29.5664 127.276 29.0889 126.241 29.0889C125.17 29.0889 124.356 29.5676 123.797 30.5239C123.319 31.3164 123.082 32.2801 123.082 33.4201C123.082 34.5264 123.319 35.4751 123.797 36.2651C124.374 37.2226 125.179 37.7001 126.217 37.7001C127.235 37.7001 128.034 37.2126 128.61 36.2401C129.101 35.4339 129.349 34.4751 129.349 33.3701Z" fill="white"/>
<path d="M140.776 29.7292C140.512 29.6804 140.231 29.6554 139.936 29.6554C138.998 29.6554 138.273 30.0092 137.763 30.7179C137.319 31.3429 137.097 32.1329 137.097 33.0867V39.3804H134.433L134.458 31.1629C134.458 29.7804 134.424 28.5217 134.358 27.3867H136.679L136.777 29.6817H136.851C137.132 28.8929 137.576 28.2579 138.183 27.7817C138.777 27.3529 139.418 27.1392 140.109 27.1392C140.356 27.1392 140.578 27.1567 140.776 27.1879V29.7292Z" fill="white"/>
<path d="M152.695 32.815C152.695 33.2925 152.664 33.695 152.597 34.0237H144.602C144.634 35.2087 145.02 36.115 145.762 36.74C146.436 37.2987 147.307 37.5787 148.377 37.5787C149.561 37.5787 150.641 37.39 151.612 37.0112L152.03 38.8612C150.895 39.3562 149.555 39.6025 148.009 39.6025C146.149 39.6025 144.689 39.055 143.626 37.9612C142.566 36.8675 142.035 35.3987 142.035 33.5562C142.035 31.7475 142.529 30.2412 143.517 29.04C144.552 27.7575 145.951 27.1162 147.711 27.1162C149.44 27.1162 150.749 27.7575 151.637 29.04C152.341 30.0587 152.695 31.3187 152.695 32.815ZM150.154 32.1237C150.171 31.3337 149.997 30.6512 149.636 30.075C149.175 29.3337 148.466 28.9637 147.512 28.9637C146.641 28.9637 145.932 29.325 145.391 30.05C144.947 30.6262 144.684 31.3175 144.602 32.1225H150.154V32.1237Z" fill="white"/>
<path d="M61.3127 12.5109C61.3127 13.9821 60.8715 15.0896 59.9902 15.8334C59.174 16.5196 58.014 16.8634 56.5115 16.8634C55.7665 16.8634 55.129 16.8309 54.5952 16.7659V8.72713C55.2915 8.61463 56.0415 8.55713 56.8515 8.55713C58.2827 8.55713 59.3615 8.86838 60.089 9.49088C60.904 10.1946 61.3127 11.2009 61.3127 12.5109ZM59.9315 12.5471C59.9315 11.5934 59.679 10.8621 59.174 10.3521C58.669 9.84338 57.9315 9.58838 56.9602 9.58838C56.5477 9.58838 56.1965 9.61588 55.9052 9.67338V15.7846C56.0665 15.8096 56.3615 15.8209 56.7902 15.8209C57.7927 15.8209 58.5665 15.5421 59.1115 14.9846C59.6565 14.4271 59.9315 13.6146 59.9315 12.5471Z" fill="white"/>
<path d="M68.6362 13.7958C68.6362 14.7021 68.3775 15.4446 67.86 16.0271C67.3175 16.6258 66.5987 16.9246 65.7012 16.9246C64.8362 16.9246 64.1475 16.6383 63.6337 16.0633C63.1212 15.4896 62.865 14.7658 62.865 13.8933C62.865 12.9808 63.1287 12.2321 63.6587 11.6508C64.1887 11.0696 64.9012 10.7783 65.7987 10.7783C66.6637 10.7783 67.3587 11.0646 67.885 11.6383C68.385 12.1958 68.6362 12.9158 68.6362 13.7958ZM67.2775 13.8383C67.2775 13.2946 67.16 12.8283 66.9262 12.4396C66.6512 11.9696 66.26 11.7346 65.7512 11.7346C65.225 11.7346 64.825 11.9696 64.55 12.4396C64.315 12.8283 64.1987 13.3021 64.1987 13.8621C64.1987 14.4058 64.3162 14.8721 64.55 15.2608C64.8337 15.7308 65.2287 15.9658 65.7387 15.9658C66.2387 15.9658 66.6312 15.7271 66.9137 15.2483C67.1562 14.8521 67.2775 14.3821 67.2775 13.8383Z" fill="white"/>
<path d="M78.4567 10.8984L76.6129 16.7909H75.4129L74.6492 14.2322C74.4554 13.5934 74.2979 12.9584 74.1754 12.3284H74.1517C74.0379 12.9759 73.8804 13.6097 73.6779 14.2322L72.8667 16.7909H71.6529L69.9192 10.8984H71.2654L71.9317 13.6997C72.0929 14.3622 72.2254 14.9934 72.3317 15.5909H72.3554C72.4529 15.0984 72.6142 14.4709 72.8417 13.7122L73.6779 10.8997H74.7454L75.5467 13.6522C75.7404 14.3234 75.8979 14.9697 76.0192 15.5922H76.0554C76.1442 14.9859 76.2779 14.3397 76.4554 13.6522L77.1704 10.8997H78.4567V10.8984Z" fill="white"/>
<path d="M85.2477 16.7912H83.9378V13.4162C83.9378 12.3762 83.5427 11.8562 82.7502 11.8562C82.3615 11.8562 82.0478 11.9987 81.804 12.2849C81.5628 12.5712 81.4403 12.9087 81.4403 13.2949V16.7899H80.1303V12.5824C80.1303 12.0649 80.114 11.5037 80.0828 10.8962H81.234L81.2953 11.8174H81.3315C81.484 11.5312 81.7115 11.2949 82.0103 11.1062C82.3653 10.8862 82.7628 10.7749 83.1977 10.7749C83.7477 10.7749 84.2052 10.9524 84.569 11.3087C85.0215 11.7449 85.2477 12.3962 85.2477 13.2612V16.7912Z" fill="white"/>
<path d="M88.8605 16.7911H87.5518V8.19482H88.8605V16.7911Z" fill="white"/>
<path d="M96.573 13.7958C96.573 14.7021 96.3143 15.4446 95.7968 16.0271C95.2543 16.6258 94.5343 16.9246 93.638 16.9246C92.7718 16.9246 92.083 16.6383 91.5705 16.0633C91.058 15.4896 90.8018 14.7658 90.8018 13.8933C90.8018 12.9808 91.0655 12.2321 91.5955 11.6508C92.1255 11.0696 92.838 10.7783 93.7343 10.7783C94.6005 10.7783 95.2943 11.0646 95.8218 11.6383C96.3218 12.1958 96.573 12.9158 96.573 13.7958ZM95.213 13.8383C95.213 13.2946 95.0955 12.8283 94.8618 12.4396C94.588 11.9696 94.1955 11.7346 93.688 11.7346C93.1605 11.7346 92.7605 11.9696 92.4868 12.4396C92.2518 12.8283 92.1355 13.3021 92.1355 13.8621C92.1355 14.4058 92.253 14.8721 92.4868 15.2608C92.7705 15.7308 93.1655 15.9658 93.6755 15.9658C94.1755 15.9658 94.5668 15.7271 94.8493 15.2483C95.093 14.8521 95.213 14.3821 95.213 13.8383Z" fill="white"/>
<path d="M102.913 16.7908H101.736L101.639 16.1121H101.603C101.2 16.6533 100.626 16.9246 99.8814 16.9246C99.3252 16.9246 98.8752 16.7458 98.5364 16.3908C98.2289 16.0683 98.0752 15.6671 98.0752 15.1908C98.0752 14.4708 98.3752 13.9221 98.9789 13.5421C99.5814 13.1621 100.429 12.9758 101.52 12.9846V12.8746C101.52 12.0983 101.113 11.7108 100.296 11.7108C99.7152 11.7108 99.2027 11.8571 98.7602 12.1471L98.4939 11.2871C99.0414 10.9483 99.7177 10.7783 100.515 10.7783C102.055 10.7783 102.828 11.5908 102.828 13.2158V15.3858C102.828 15.9746 102.856 16.4433 102.913 16.7908ZM101.553 14.7658V13.8571C100.108 13.8321 99.3852 14.2283 99.3852 15.0446C99.3852 15.3521 99.4677 15.5821 99.6364 15.7358C99.8052 15.8896 100.02 15.9658 100.276 15.9658C100.564 15.9658 100.833 15.8746 101.078 15.6933C101.324 15.5108 101.475 15.2796 101.531 14.9958C101.545 14.9321 101.553 14.8546 101.553 14.7658Z" fill="white"/>
<path d="M110.356 16.7911H109.194L109.133 15.8448H109.096C108.725 16.5648 108.093 16.9248 107.204 16.9248C106.494 16.9248 105.903 16.6461 105.434 16.0886C104.965 15.5311 104.731 14.8073 104.731 13.9186C104.731 12.9648 104.985 12.1923 105.495 11.6023C105.989 11.0523 106.594 10.7773 107.314 10.7773C108.105 10.7773 108.659 11.0436 108.974 11.5773H108.999V8.19482H110.31V15.2036C110.31 15.7773 110.325 16.3061 110.356 16.7911ZM108.999 14.3061V13.3236C108.999 13.1536 108.986 13.0161 108.963 12.9111C108.889 12.5961 108.73 12.3311 108.489 12.1173C108.245 11.9036 107.951 11.7961 107.613 11.7961C107.124 11.7961 106.741 11.9898 106.46 12.3786C106.181 12.7673 106.04 13.2636 106.04 13.8698C106.04 14.4523 106.174 14.9248 106.443 15.2886C106.726 15.6761 107.109 15.8698 107.588 15.8698C108.018 15.8698 108.361 15.7086 108.623 15.3848C108.875 15.0861 108.999 14.7261 108.999 14.3061Z" fill="white"/>
<path d="M121.56 13.7958C121.56 14.7021 121.302 15.4446 120.784 16.0271C120.242 16.6258 119.524 16.9246 118.625 16.9246C117.762 16.9246 117.073 16.6383 116.558 16.0633C116.045 15.4896 115.789 14.7658 115.789 13.8933C115.789 12.9808 116.053 12.2321 116.583 11.6508C117.113 11.0696 117.825 10.7783 118.724 10.7783C119.588 10.7783 120.284 11.0646 120.809 11.6383C121.309 12.1958 121.56 12.9158 121.56 13.7958ZM120.203 13.8383C120.203 13.2946 120.085 12.8283 119.852 12.4396C119.575 11.9696 119.185 11.7346 118.675 11.7346C118.15 11.7346 117.75 11.9696 117.474 12.4396C117.239 12.8283 117.123 13.3021 117.123 13.8621C117.123 14.4058 117.24 14.8721 117.474 15.2608C117.758 15.7308 118.153 15.9658 118.663 15.9658C119.163 15.9658 119.557 15.7271 119.839 15.2483C120.08 14.8521 120.203 14.3821 120.203 13.8383Z" fill="white"/>
<path d="M128.604 16.7912H127.295V13.4162C127.295 12.3762 126.9 11.8562 126.107 11.8562C125.718 11.8562 125.404 11.9987 125.162 12.2849C124.919 12.5712 124.798 12.9087 124.798 13.2949V16.7899H123.487V12.5824C123.487 12.0649 123.472 11.5037 123.44 10.8962H124.59L124.652 11.8174H124.688C124.842 11.5312 125.069 11.2949 125.367 11.1062C125.723 10.8862 126.119 10.7749 126.555 10.7749C127.104 10.7749 127.562 10.9524 127.925 11.3087C128.379 11.7449 128.604 12.3962 128.604 13.2612V16.7912Z" fill="white"/>
<path d="M137.42 11.8799H135.978V14.7424C135.978 15.4699 136.234 15.8337 136.741 15.8337C136.976 15.8337 137.171 15.8137 137.325 15.7724L137.359 16.7662C137.1 16.8637 136.76 16.9124 136.341 16.9124C135.824 16.9124 135.421 16.7549 135.13 16.4399C134.838 16.1249 134.693 15.5949 134.693 14.8512V11.8799H133.831V10.8987H134.693V9.81865L135.976 9.43115V10.8974H137.419V11.8799H137.42Z" fill="white"/>
<path d="M144.356 16.7911H143.044V13.4411C143.044 12.3848 142.649 11.8561 141.858 11.8561C141.251 11.8561 140.836 12.1623 140.608 12.7748C140.569 12.9036 140.547 13.0611 140.547 13.2461V16.7898H139.238V8.19482H140.547V11.7461H140.572C140.984 11.0998 141.576 10.7773 142.342 10.7773C142.884 10.7773 143.333 10.9548 143.689 11.3111C144.133 11.7548 144.356 12.4148 144.356 13.2873V16.7911Z" fill="white"/>
<path d="M151.509 13.5663C151.509 13.8013 151.492 13.9988 151.461 14.1601H147.532C147.549 14.7426 147.737 15.1863 148.101 15.4938C148.433 15.7688 148.862 15.9063 149.387 15.9063C149.968 15.9063 150.498 15.8138 150.976 15.6276L151.181 16.5376C150.622 16.7801 149.964 16.9013 149.203 16.9013C148.291 16.9013 147.572 16.6326 147.052 16.0951C146.529 15.5576 146.271 14.8363 146.271 13.9313C146.271 13.0426 146.512 12.3026 146.998 11.7126C147.506 11.0826 148.192 10.7676 149.058 10.7676C149.906 10.7676 150.549 11.0826 150.984 11.7126C151.336 12.2126 151.509 12.8313 151.509 13.5663ZM150.259 13.2276C150.269 12.8388 150.183 12.5038 150.006 12.2213C149.778 11.8576 149.432 11.6751 148.963 11.6751C148.536 11.6751 148.187 11.8526 147.921 12.2088C147.703 12.4926 147.574 12.8313 147.532 13.2276H150.259Z" fill="white"/>
</g>
<defs>
<clipPath id="clip0">
<rect width="168.75" height="50" fill="white"/>
</clipPath>
</defs>
</svg>
