<svg width="171" height="50" viewBox="0 0 171 50" fill="none" xmlns="http://www.w3.org/2000/svg">
<g clip-path="url(#clip0)">
<path fill-rule="evenodd" clip-rule="evenodd" d="M163.917 50H7.02806C3.56796 50 0.75 47.182 0.75 43.75V6.25C0.75 2.80549 3.56796 0 7.02806 0H163.917C167.374 0 170.195 2.80549 170.195 6.25V43.75C170.195 47.182 167.374 50 163.917 50Z" fill="black"/>
<path fill-rule="evenodd" clip-rule="evenodd" d="M163.917 1.00062C166.819 1.00062 169.195 3.36035 169.195 6.25V43.75C169.195 46.6397 166.835 48.9994 163.917 48.9994H7.02806C4.12594 48.9994 1.75062 46.6397 1.75062 43.75V6.25C1.75062 3.36035 4.11035 1.00062 7.02806 1.00062H163.917ZM163.917 0H7.02806C3.56796 0 0.75 2.81796 0.75 6.25V43.75C0.75 47.1945 3.56796 50 7.02806 50H163.917C167.374 50 170.195 47.1945 170.195 43.75V6.25C170.195 2.81796 167.374 0 163.917 0Z" fill="#A6A6A6"/>
<path d="M90.0145 16.5399C88.883 16.5399 87.9291 16.1441 87.1747 15.3648C86.4266 14.6073 86.0089 13.563 86.0276 12.4969C86.0276 11.3592 86.4141 10.3959 87.1747 9.63222C87.926 8.85292 88.8799 8.45703 90.0114 8.45703C91.1305 8.45703 92.0843 8.85292 92.8512 9.63222C93.6118 10.4209 93.9983 11.3841 93.9983 12.4969C93.9858 13.6378 93.5993 14.601 92.8512 15.3616C92.0999 16.1472 91.1461 16.5399 90.0145 16.5399ZM56.3455 16.5399C55.2389 16.5399 54.2788 16.1503 53.4933 15.3803C52.714 14.6135 52.3181 13.6441 52.3181 12.5C52.3181 11.356 52.714 10.3866 53.4933 9.61975C54.2633 8.8498 55.2234 8.46015 56.3455 8.46015C56.8942 8.46015 57.4272 8.56925 57.9384 8.79057C58.4403 9.00566 58.8487 9.29868 59.151 9.65716L59.2258 9.74756L58.3811 10.5767L58.2938 10.4739C57.8169 9.90653 57.1778 9.6291 56.3331 9.6291C55.5787 9.6291 54.921 9.89718 54.3786 10.4271C53.8331 10.9601 53.5556 11.6584 53.5556 12.5032C53.5556 13.3479 53.8331 14.0462 54.3786 14.5792C54.921 15.1092 55.5787 15.3772 56.3331 15.3772C57.1373 15.3772 57.8138 15.1092 58.3406 14.5792C58.6523 14.2675 58.8455 13.8311 58.9141 13.2794H56.2053V12.1135H60.0768L60.0924 12.2195C60.1205 12.4159 60.1485 12.6185 60.1485 12.8055C60.1485 13.881 59.8244 14.7507 59.1822 15.3928C58.4528 16.1534 57.4989 16.5399 56.3455 16.5399ZM101.112 16.3747H99.9179L96.2614 10.5237L96.2926 11.5774V16.3716H95.0987V8.62536H96.4609L96.4983 8.68459L99.9366 14.1958L99.9054 13.1453V8.62536H101.112V16.3747ZM81.0432 16.3747H79.8337V9.7912H77.7358V8.62536H83.138V9.7912H81.0401V16.3747H81.0432ZM76.7508 16.3747H75.5444V8.62536H76.7508V16.3747ZM69.9709 16.3747H68.7645V9.7912H66.6666V8.62536H72.0687V9.7912H69.9709V16.3747ZM65.9029 16.3623H61.277V8.62536H65.9029V9.7912H62.4864V11.9171H65.5694V13.0705H62.4864V15.1964H65.9029V16.3623ZM88.06 14.5636C88.5993 15.1029 89.2539 15.3741 90.0145 15.3741C90.7969 15.3741 91.436 15.1092 91.969 14.5636C92.4989 14.0337 92.767 13.3386 92.767 12.5C92.767 11.6615 92.4989 10.9633 91.9721 10.4365C91.4328 9.89718 90.7751 9.62598 90.0176 9.62598C89.2352 9.62598 88.5962 9.89095 88.0663 10.4365C87.5363 10.9664 87.2683 11.6615 87.2683 12.5C87.2683 13.3386 87.5332 14.0368 88.06 14.5636Z" fill="white"/>
<path fill-rule="evenodd" clip-rule="evenodd" d="M85.915 27.1945C82.9692 27.1945 80.5814 29.4296 80.5814 32.5125C80.5814 35.5673 82.9848 37.8304 85.915 37.8304C88.8607 37.8304 91.2485 35.5798 91.2485 32.5125C91.2485 29.4296 88.8607 27.1945 85.915 27.1945ZM85.915 35.7232C84.3034 35.7232 82.9162 34.389 82.9162 32.5C82.9162 30.5829 84.3065 29.2768 85.915 29.2768C87.5266 29.2768 88.9137 30.5829 88.9137 32.5C88.9168 34.4015 87.5266 35.7232 85.915 35.7232ZM74.2784 27.1945C71.3327 27.1945 68.9449 29.4296 68.9449 32.5125C68.9449 35.5673 71.3483 37.8304 74.2784 37.8304C77.2242 37.8304 79.612 35.5798 79.612 32.5125C79.612 29.4296 77.2211 27.1945 74.2784 27.1945ZM74.2784 35.7232C72.6668 35.7232 71.2797 34.389 71.2797 32.5C71.2797 30.5829 72.67 29.2768 74.2784 29.2768C75.89 29.2768 77.2772 30.5829 77.2772 32.5C77.2772 34.4015 75.89 35.7232 74.2784 35.7232ZM60.4318 28.8186V31.0692H65.8339C65.6687 32.3317 65.251 33.2637 64.612 33.9027C63.8202 34.6945 62.5983 35.5549 60.4443 35.5549C57.1245 35.5549 54.5278 32.8741 54.5278 29.5542C54.5278 26.2344 57.1245 23.5536 60.4443 23.5536C62.2367 23.5536 63.5428 24.2612 64.5122 25.1652L66.1082 23.5692C64.7616 22.2787 62.9692 21.2905 60.4567 21.2905C55.9025 21.2905 52.0808 25 52.0808 29.5418C52.0808 34.096 55.8994 37.793 60.4567 37.793C62.9162 37.793 64.7616 36.9888 66.2205 35.4738C67.7074 33.9869 68.1781 31.889 68.1781 30.1964C68.1781 29.6696 68.1375 29.1958 68.0534 28.7936H60.4287C60.4318 28.7905 60.4318 28.8186 60.4318 28.8186ZM117.068 30.5705C116.623 29.3766 115.276 27.182 112.514 27.182C109.777 27.182 107.502 29.336 107.502 32.5C107.502 35.4863 109.752 37.818 112.779 37.818C115.21 37.818 116.626 36.3311 117.209 35.4582L115.404 34.2488C114.805 35.1372 113.973 35.7201 112.792 35.7201C111.598 35.7201 110.762 35.1777 110.207 34.1085L117.318 31.1627C117.318 31.1658 117.068 30.5705 117.068 30.5705ZM109.818 32.3473C109.762 30.293 111.414 29.2488 112.595 29.2488C113.527 29.2488 114.303 29.707 114.568 30.3741L109.818 32.3473ZM104.042 37.5H106.376V21.8766H104.042V37.5ZM100.207 28.3759H100.123C99.5964 27.7494 98.5958 27.182 97.3177 27.182C94.665 27.182 92.2211 29.5168 92.2211 32.5156C92.2211 35.5019 94.6525 37.8086 97.3177 37.8086C98.5802 37.8086 99.5964 37.2382 100.123 36.5991H100.207V37.3628C100.207 39.3922 99.1226 40.4863 97.3738 40.4863C95.943 40.4863 95.0546 39.4576 94.693 38.5973L92.6637 39.4451C93.2466 40.8479 94.8021 42.5842 97.3707 42.5842C100.108 42.5842 102.427 40.9726 102.427 37.0418V27.5H100.22V28.3759C100.223 28.3759 100.207 28.3759 100.207 28.3759ZM97.5266 35.7232C95.915 35.7232 94.5683 34.3766 94.5683 32.5156C94.5683 30.639 95.915 29.2799 97.5266 29.2799C99.1226 29.2799 100.36 30.6546 100.36 32.5156C100.376 34.3766 99.1257 35.7232 97.5266 35.7232ZM128 21.8766H122.417V37.5H124.752V31.5835H128.003C130.588 31.5835 133.128 29.7101 133.128 26.7363C133.128 23.7625 130.597 21.8766 128 21.8766ZM128.069 29.4015H124.749V24.0399H128.069C129.818 24.0399 130.806 25.4832 130.806 26.7207C130.806 27.9458 129.805 29.4015 128.069 29.4015ZM142.486 27.1665C140.79 27.1665 139.042 27.9177 138.318 29.5542L140.388 30.4146C140.834 29.5542 141.651 29.2612 142.514 29.2612C143.724 29.2612 144.946 29.9844 144.974 31.2749V31.4402C144.556 31.2032 143.639 30.8417 142.542 30.8417C140.307 30.8417 138.041 32.0636 138.041 34.3547C138.041 36.4526 139.874 37.7993 141.916 37.7993C143.484 37.7993 144.347 37.0917 144.886 36.2718H144.97V37.4813H147.221V31.4963C147.221 28.7095 145.151 27.1665 142.486 27.1665ZM142.193 35.7232C141.429 35.7232 140.36 35.3491 140.36 34.389C140.36 33.1796 141.694 32.7213 142.832 32.7213C143.861 32.7213 144.347 32.9426 144.958 33.2481C144.79 34.6509 143.605 35.7107 142.193 35.7232ZM155.432 27.5L152.751 34.2768H152.667L149.889 27.5H147.377L151.545 36.9732L149.169 42.2382H151.601L158.013 27.5H155.432ZM134.416 37.5H136.75V21.8766H134.416V37.5Z" fill="white"/>
<path fill-rule="evenodd" clip-rule="evenodd" d="M13.7926 9.41717C13.431 9.80682 13.2222 10.4022 13.2222 11.1815V38.8218C13.2222 39.6011 13.431 40.1965 13.8051 40.5705L13.9017 40.6547L29.388 25.1684V24.8224L13.8893 9.33301L13.7926 9.41717Z" fill="url(#paint0_linear)"/>
<path fill-rule="evenodd" clip-rule="evenodd" d="M34.5407 30.3458L29.3755 25.1806V24.819L34.5407 19.6538L34.6529 19.7224L40.7626 23.195C42.5114 24.18 42.5114 25.8072 40.7626 26.8047L34.6529 30.2772L34.5407 30.3458Z" fill="url(#paint1_linear)"/>
<path fill-rule="evenodd" clip-rule="evenodd" d="M34.6528 30.2774L29.3754 25L13.7925 40.5829C14.3629 41.1939 15.3199 41.2625 16.3891 40.6671L34.6528 30.2774Z" fill="url(#paint2_linear)"/>
<path fill-rule="evenodd" clip-rule="evenodd" d="M34.6528 19.7226L16.3891 9.34849C15.3199 8.73752 14.3598 8.82168 13.7925 9.43265L29.3754 25L34.6528 19.7226Z" fill="url(#paint3_linear)"/>
<path opacity="0.2" fill-rule="evenodd" clip-rule="evenodd" d="M34.5404 30.165L16.4013 40.4705C15.3882 41.0535 14.4842 41.0129 13.9013 40.483L13.8047 40.5796L13.9013 40.6638C14.4842 41.1906 15.3882 41.2343 16.4013 40.6513L34.665 30.2773L34.5404 30.165Z" fill="black"/>
<path opacity="0.12" fill-rule="evenodd" clip-rule="evenodd" d="M40.7627 26.6241L34.5251 30.1652L34.6374 30.2774L40.7471 26.8049C41.623 26.3061 42.0532 25.6515 42.0532 25C42.0002 25.5985 41.5545 26.1658 40.7627 26.6241Z" fill="black"/>
<path opacity="0.25" fill-rule="evenodd" clip-rule="evenodd" d="M16.3893 9.52936L40.7627 23.376C41.5545 23.8218 42.0002 24.4047 42.0688 25.0001C42.0688 24.3486 41.6386 23.6939 40.7627 23.1952L16.3893 9.34856C14.6405 8.34794 13.2222 9.18335 13.2222 11.1815V11.3623C13.2222 9.36103 14.6405 8.54121 16.3893 9.52936Z" fill="white"/>
</g>
<defs>
<linearGradient id="paint0_linear" x1="27.9989" y1="10.8833" x2="3.19255" y2="17.493" gradientUnits="userSpaceOnUse">
<stop stop-color="#00A0FF"/>
<stop offset="0.00657" stop-color="#00A1FF"/>
<stop offset="0.2601" stop-color="#00BEFF"/>
<stop offset="0.5122" stop-color="#00D2FF"/>
<stop offset="0.7604" stop-color="#00DFFF"/>
<stop offset="1" stop-color="#00E3FF"/>
</linearGradient>
<linearGradient id="paint1_linear" x1="43.0432" y1="24.9999" x2="12.7971" y2="24.9999" gradientUnits="userSpaceOnUse">
<stop stop-color="#FFE000"/>
<stop offset="0.4087" stop-color="#FFBD00"/>
<stop offset="0.7754" stop-color="#FFA500"/>
<stop offset="1" stop-color="#FF9C00"/>
</linearGradient>
<linearGradient id="paint2_linear" x1="31.7832" y1="27.8717" x2="11.8687" y2="61.3893" gradientUnits="userSpaceOnUse">
<stop stop-color="#FF3A44"/>
<stop offset="1" stop-color="#C31162"/>
</linearGradient>
<linearGradient id="paint3_linear" x1="9.86853" y1="0.223475" x2="18.7531" y2="15.193" gradientUnits="userSpaceOnUse">
<stop stop-color="#32A071"/>
<stop offset="0.0685" stop-color="#2DA771"/>
<stop offset="0.4762" stop-color="#15CF74"/>
<stop offset="0.8009" stop-color="#06E775"/>
<stop offset="1" stop-color="#00F076"/>
</linearGradient>
<clipPath id="clip0">
<rect x="0.75" width="169.445" height="50" fill="white"/>
</clipPath>
</defs>
</svg>
